<svg xmlns="http://www.w3.org/2000/svg" xml:space="preserve" viewBox="0 0 512 512"><path d="m502.6 303.8-36.3-30.1a20.3 20.3 0 0 1 0-35.4l36.3-30.1a18.2 18.2 0 0 0-9.1-34.1l-46.6-8a20.2 20.2 0 0 1-17.6-30.5l16.4-44.3a18.2 18.2 0 0 0-25-25l-44.2 16.5A20.2 20.2 0 0 1 345.8 65L338 18.5a18.2 18.2 0 0 0-34.1-9.1l-30.1 36.3a20.3 20.3 0 0 1-35.4 0L208.2 9.4a18.2 18.2 0 0 0-34.1 9.1l-8 46.6a20.2 20.2 0 0 1-30.6 17.7L91.3 66.3a18.2 18.2 0 0 0-25 25l16.4 44.3a20.2 20.2 0 0 1-17.6 30.6L18.5 174a18.2 18.2 0 0 0-9.1 34l36.3 30.2a20.2 20.2 0 0 1 0 35.4L9.4 303.8a18.2 18.2 0 0 0 9.1 34.1l46.6 8a20.2 20.2 0 0 1 17.6 30.5l-16.4 44.3a18.2 18.2 0 0 0 25 25l44.2-16.4a20.2 20.2 0 0 1 30.7 17.6l7.9 46.6a18.2 18.2 0 0 0 34.1 9.1l30.1-36.3a20.3 20.3 0 0 1 35.4 0l30.1 36.3a18.2 18.2 0 0 0 34.1-9.1l8-46.6a20.2 20.2 0 0 1 30.6-17.6l44.2 16.4a18.2 18.2 0 0 0 25-25l-16.4-44.3a20.2 20.2 0 0 1 17.6-30.6l46.6-7.9a18.2 18.2 0 0 0 9.1-34.1zm-359.2-54.9c0-3 1.2-5.8 3.3-7.9l19.3-19.3-20.4-20.4a11.2 11.2 0 0 1 15.8-15.8l20.4 20.4 20.4-20.4a11 11 0 0 1 15.8 0 11.1 11.1 0 0 1 0 15.8l-20.4 20.4 19.3 19.3a11 11 0 0 1 0 15.8 11.1 11.1 0 0 1-15.8 0l-19.3-19.3-19.3 19.3a11.1 11.1 0 0 1-15.8 0 11 11 0 0 1-3.3-7.9zm211.1 92.3a26.7 26.7 0 0 1-19.8-8.5l-3.6-3.8c-1.8-2-3.4-3.8-4.8-4.7a7.7 7.7 0 0 0-4.7-1.4c-1.8 0-2.8.4-3.6.8-1 .5-2 1.2-3.2 2.4l-2.5 2.8c-2.2 2.4-4.8 5.4-8.6 8-3 2-8 4.4-14.7 4.4h-.2a26.6 26.6 0 0 1-19.8-8.5c-1.4-1.3-2.6-2.7-3.6-3.9-1.9-2-3.4-3.7-4.8-4.6a7.7 7.7 0 0 0-4.7-1.4c-1.7 0-2.7.3-3.6.8-1 .5-2 1.2-3.2 2.4l-2.5 2.8c-2.2 2.4-4.8 5.4-8.6 8-3 2-7.9 4.4-14.6 4.4a27 27 0 0 1-20-8.5c-1.5-1.4-2.7-2.7-3.8-4-1.8-2-3.3-3.7-4.7-4.5a7.6 7.6 0 0 0-4.7-1.4c-1.8 0-2.8.4-3.6.8-.9.5-1.9 1.2-3 2.4-1 .8-1.8 1.8-2.7 2.8-2.1 2.4-4.7 5.4-8.5 8-3 2-8 4.4-14.7 4.4a9.3 9.3 0 0 1-9.5-9.2c0-5.1 4.2-9.3 9.3-9.3 1.8 0 2.8-.3 3.6-.7 1-.5 2-1.3 3.1-2.4l2.7-2.8c2-2.4 4.7-5.4 8.4-8a26.9 26.9 0 0 1 34.7 4l3.7 4c1.8 2 3.4 3.7 4.8 4.6 1.3.9 2.4 1.3 4.6 1.3 1.9 0 2.8-.3 3.7-.7.9-.5 1.9-1.2 3-2.4l2.7-2.8c2-2.4 4.7-5.4 8.5-8a27 27 0 0 1 34.7 4l3.7 4c1.8 2 3.4 3.7 4.7 4.6 1.4.9 2.5 1.3 4.7 1.3 1.7 0 2.7-.3 3.7-.7.9-.5 1.9-1.2 3-2.4l2.7-2.8c2.1-2.4 4.7-5.4 8.5-8a27 27 0 0 1 34.7 4l3.7 4c1.8 2 3.4 3.7 4.8 4.6 1.3.9 2.4 1.3 4.7 1.3a9.2 9.2 0 0 1 0 18.5zM365.3 241a11.2 11.2 0 0 1-7.9 19c-3 0-5.8-1-7.9-3.2l-19.3-19.3-19.3 19.3a11.1 11.1 0 0 1-15.8 0 11 11 0 0 1 0-15.8l19.3-19.3-20.4-20.4a11.1 11.1 0 0 1 0-15.8 11.1 11.1 0 0 1 15.8 0l20.4 20.4 20.4-20.4a11.1 11.1 0 0 1 15.8 0 11.2 11.2 0 0 1 0 15.8L346 221.7l19.3 19.3z" /></svg>
            